<svg width="194" height="40" viewBox="0 0 194 40" fill="none" xmlns="http://www.w3.org/2000/svg">
<path d="M2.96 39.42C1.36 39.42 0.56 38.58 0.56 36.9V11.88C0.56 10.24 1.34 9.42 2.9 9.42C4.5 9.42 5.3 10.24 5.3 11.88V14.82C6.26 12.98 7.62 11.6 9.38 10.68C11.14 9.76 13.12 9.3 15.32 9.3C22.24 9.3 25.7 13.14 25.7 20.82V36.9C25.7 38.58 24.9 39.42 23.3 39.42C21.66 39.42 20.84 38.58 20.84 36.9V21.12C20.84 18.4 20.3 16.42 19.22 15.18C18.18 13.9 16.5 13.26 14.18 13.26C11.5 13.26 9.36 14.1 7.76 15.78C6.2 17.42 5.42 19.62 5.42 22.38V36.9C5.42 38.58 4.6 39.42 2.96 39.42ZM44.9816 39.54C37.9816 39.54 34.4816 35.68 34.4816 27.96V11.88C34.4816 10.24 35.2816 9.42 36.8816 9.42C38.5216 9.42 39.3416 10.24 39.3416 11.88V27.9C39.3416 30.5 39.8616 32.42 40.9016 33.66C41.9816 34.9 43.6616 35.52 45.9416 35.52C48.4216 35.52 50.4416 34.7 52.0016 33.06C53.5616 31.38 54.3416 29.16 54.3416 26.4V11.88C54.3416 10.24 55.1616 9.42 56.8016 9.42C58.4016 9.42 59.2016 10.24 59.2016 11.88V36.9C59.2016 38.58 58.4216 39.42 56.8616 39.42C55.2616 39.42 54.4616 38.58 54.4616 36.9V34.08C53.5416 35.84 52.2416 37.2 50.5616 38.16C48.9216 39.08 47.0616 39.54 44.9816 39.54ZM81.4344 39.54C76.8344 39.54 73.1944 38.2 70.5144 35.52C67.8344 32.8 66.4944 29.12 66.4944 24.48C66.4944 21.48 67.0944 18.84 68.2944 16.56C69.4944 14.24 71.1344 12.46 73.2144 11.22C75.3344 9.94 77.7744 9.3 80.5344 9.3C84.4944 9.3 87.5944 10.58 89.8344 13.14C92.0744 15.66 93.1944 19.14 93.1944 23.58C93.1944 24.82 92.4944 25.44 91.0944 25.44H71.2344C71.3944 28.76 72.3544 31.3 74.1144 33.06C75.8744 34.78 78.3144 35.64 81.4344 35.64C82.7544 35.64 84.0944 35.48 85.4544 35.16C86.8144 34.8 88.1344 34.18 89.4144 33.3C90.3344 32.7 91.0944 32.58 91.6944 32.94C92.3344 33.3 92.6544 33.86 92.6544 34.62C92.6944 35.34 92.2944 35.98 91.4544 36.54C90.1344 37.5 88.5544 38.24 86.7144 38.76C84.9144 39.28 83.1544 39.54 81.4344 39.54ZM80.6544 12.9C77.8944 12.9 75.7144 13.76 74.1144 15.48C72.5144 17.2 71.5744 19.46 71.2944 22.26H88.9944C88.8744 19.3 88.0944 17 86.6544 15.36C85.2544 13.72 83.2544 12.9 80.6544 12.9ZM110.068 39.54C108.268 39.54 106.448 39.32 104.608 38.88C102.808 38.4 101.128 37.64 99.568 36.6C98.848 36.16 98.488 35.6 98.488 34.92C98.528 34.2 98.808 33.64 99.328 33.24C99.848 32.84 100.508 32.84 101.308 33.24C102.868 34.2 104.368 34.88 105.808 35.28C107.288 35.64 108.748 35.82 110.188 35.82C112.468 35.82 114.188 35.4 115.348 34.56C116.508 33.72 117.088 32.58 117.088 31.14C117.088 30.02 116.708 29.14 115.948 28.5C115.188 27.82 113.988 27.3 112.348 26.94L106.888 25.74C101.928 24.66 99.448 22.1 99.448 18.06C99.448 15.42 100.488 13.3 102.568 11.7C104.688 10.1 107.448 9.3 110.848 9.3C112.568 9.3 114.228 9.54 115.828 10.02C117.428 10.46 118.868 11.18 120.148 12.18C120.828 12.66 121.128 13.24 121.048 13.92C120.968 14.6 120.648 15.14 120.088 15.54C119.568 15.9 118.928 15.84 118.168 15.36C116.968 14.56 115.748 13.98 114.508 13.62C113.268 13.22 112.048 13.02 110.848 13.02C108.608 13.02 106.908 13.46 105.748 14.34C104.588 15.22 104.008 16.38 104.008 17.82C104.008 20.06 105.488 21.5 108.448 22.14L113.908 23.28C116.468 23.84 118.408 24.74 119.728 25.98C121.048 27.18 121.708 28.82 121.708 30.9C121.708 33.58 120.648 35.7 118.528 37.26C116.408 38.78 113.588 39.54 110.068 39.54ZM140.522 39.54C137.082 39.54 134.502 38.64 132.782 36.84C131.062 35 130.202 32.36 130.202 28.92V13.62H126.182C124.782 13.62 124.082 12.98 124.082 11.7C124.082 10.46 124.782 9.84 126.182 9.84H130.202V2.94C130.202 1.3 131.022 0.479999 132.662 0.479999C134.262 0.479999 135.062 1.3 135.062 2.94V9.84H142.622C144.022 9.84 144.722 10.46 144.722 11.7C144.722 12.98 144.022 13.62 142.622 13.62H135.062V28.44C135.062 30.72 135.542 32.46 136.502 33.66C137.462 34.82 139.022 35.4 141.182 35.4C141.942 35.4 142.582 35.32 143.102 35.16C143.622 35 144.082 34.92 144.482 34.92C144.842 34.88 145.142 35 145.382 35.28C145.622 35.56 145.742 36.04 145.742 36.72C145.742 37.2 145.642 37.64 145.442 38.04C145.282 38.44 144.982 38.72 144.542 38.88C144.062 39.04 143.422 39.18 142.622 39.3C141.862 39.46 141.162 39.54 140.522 39.54ZM152.258 39.42C150.618 39.42 149.798 38.58 149.798 36.9V11.88C149.798 10.24 150.578 9.42 152.138 9.42C153.738 9.42 154.538 10.24 154.538 11.88V15.06C155.338 13.22 156.578 11.82 158.258 10.86C159.938 9.86 161.938 9.32 164.258 9.24C165.538 9.12 166.218 9.76 166.298 11.16C166.418 12.56 165.698 13.34 164.138 13.5L163.178 13.62C160.418 13.86 158.318 14.74 156.878 16.26C155.438 17.74 154.718 19.78 154.718 22.38V36.9C154.718 38.58 153.898 39.42 152.258 39.42ZM180.189 39.54C178.189 39.54 176.389 39.16 174.789 38.4C173.229 37.6 171.989 36.52 171.069 35.16C170.149 33.8 169.689 32.28 169.689 30.6C169.689 28.48 170.229 26.8 171.309 25.56C172.429 24.32 174.249 23.44 176.769 22.92C179.329 22.36 182.809 22.08 187.209 22.08H189.129V20.22C189.129 17.74 188.609 15.96 187.569 14.88C186.569 13.76 184.949 13.2 182.709 13.2C181.309 13.2 179.889 13.38 178.449 13.74C177.049 14.1 175.589 14.68 174.069 15.48C173.389 15.84 172.809 15.92 172.329 15.72C171.889 15.48 171.569 15.12 171.369 14.64C171.209 14.12 171.209 13.6 171.369 13.08C171.569 12.52 171.969 12.1 172.569 11.82C174.289 10.94 176.009 10.3 177.729 9.9C179.489 9.5 181.149 9.3 182.709 9.3C186.469 9.3 189.249 10.22 191.049 12.06C192.889 13.9 193.809 16.76 193.809 20.64V36.9C193.809 38.58 193.069 39.42 191.589 39.42C190.029 39.42 189.249 38.58 189.249 36.9V33.96C188.489 35.68 187.309 37.04 185.709 38.04C184.149 39.04 182.309 39.54 180.189 39.54ZM180.969 35.88C183.369 35.88 185.329 35.06 186.849 33.42C188.369 31.74 189.129 29.62 189.129 27.06V25.26H187.269C184.029 25.26 181.469 25.42 179.589 25.74C177.749 26.02 176.449 26.54 175.689 27.3C174.969 28.02 174.609 29.02 174.609 30.3C174.609 31.94 175.169 33.28 176.289 34.32C177.449 35.36 179.009 35.88 180.969 35.88Z" fill="black"/>
</svg>
