<svg width="128" height="55" viewBox="0 0 128 55" fill="none" xmlns="http://www.w3.org/2000/svg">
<path d="M2.96 54.22C1.36 54.22 0.56 53.4 0.56 51.76V15.88C0.56 14.24 1.34 13.42 2.9 13.42C4.54 13.42 5.36 14.24 5.36 15.88V19C6.2 17.24 7.5 15.86 9.26 14.86C11.02 13.82 13.04 13.3 15.32 13.3C17.92 13.3 20.18 13.92 22.1 15.16C24.06 16.36 25.56 18.1 26.6 20.38C27.68 22.62 28.22 25.3 28.22 28.42C28.22 31.5 27.68 34.18 26.6 36.46C25.56 38.7 24.06 40.44 22.1 41.68C20.18 42.92 17.92 43.54 15.32 43.54C13.08 43.54 11.08 43.04 9.32 42.04C7.56 41.04 6.26 39.66 5.42 37.9V51.76C5.42 53.4 4.6 54.22 2.96 54.22ZM14.3 39.64C17.02 39.64 19.2 38.68 20.84 36.76C22.48 34.8 23.3 32.02 23.3 28.42C23.3 24.78 22.48 22 20.84 20.08C19.2 18.16 17.02 17.2 14.3 17.2C11.58 17.2 9.4 18.16 7.76 20.08C6.12 22 5.3 24.78 5.3 28.42C5.3 32.02 6.12 34.8 7.76 36.76C9.4 38.68 11.58 39.64 14.3 39.64ZM47.6605 43.54C44.8205 43.54 42.3605 42.92 40.2805 41.68C38.2005 40.44 36.5805 38.7 35.4205 36.46C34.3005 34.18 33.7405 31.5 33.7405 28.42C33.7405 25.34 34.3005 22.68 35.4205 20.44C36.5805 18.16 38.2005 16.4 40.2805 15.16C42.3605 13.92 44.8205 13.3 47.6605 13.3C50.4605 13.3 52.9005 13.92 54.9805 15.16C57.1005 16.4 58.7205 18.16 59.8405 20.44C61.0005 22.68 61.5805 25.34 61.5805 28.42C61.5805 31.5 61.0005 34.18 59.8405 36.46C58.7205 38.7 57.1005 40.44 54.9805 41.68C52.9005 42.92 50.4605 43.54 47.6605 43.54ZM47.6605 39.64C50.3805 39.64 52.5605 38.68 54.2005 36.76C55.8405 34.8 56.6605 32.02 56.6605 28.42C56.6605 24.78 55.8405 22 54.2005 20.08C52.5605 18.16 50.3805 17.2 47.6605 17.2C44.9005 17.2 42.7005 18.16 41.0605 20.08C39.4605 22 38.6605 24.78 38.6605 28.42C38.6605 32.02 39.4605 34.8 41.0605 36.76C42.7005 38.68 44.9005 39.64 47.6605 39.64ZM77.7603 43.54C74.8803 43.54 72.6803 42.68 71.1603 40.96C69.6403 39.2 68.8803 36.66 68.8803 33.34V2.74C68.8803 1.1 69.6803 0.279999 71.2803 0.279999C72.9203 0.279999 73.7403 1.1 73.7403 2.74V32.98C73.7403 37.26 75.4403 39.4 78.8403 39.4C79.2003 39.4 79.5203 39.38 79.8003 39.34C80.0803 39.3 80.3603 39.28 80.6403 39.28C81.0803 39.24 81.3803 39.34 81.5403 39.58C81.7403 39.82 81.8403 40.3 81.8403 41.02C81.8403 42.38 81.1603 43.16 79.8003 43.36C79.4803 43.44 79.1403 43.48 78.7803 43.48C78.4203 43.52 78.0803 43.54 77.7603 43.54ZM95.5142 43.54C92.6342 43.54 90.4342 42.68 88.9142 40.96C87.3942 39.2 86.6342 36.66 86.6342 33.34V2.74C86.6342 1.1 87.4342 0.279999 89.0342 0.279999C90.6742 0.279999 91.4942 1.1 91.4942 2.74V32.98C91.4942 37.26 93.1942 39.4 96.5942 39.4C96.9542 39.4 97.2742 39.38 97.5542 39.34C97.8342 39.3 98.1142 39.28 98.3942 39.28C98.8342 39.24 99.1342 39.34 99.2942 39.58C99.4942 39.82 99.5942 40.3 99.5942 41.02C99.5942 42.38 98.9142 43.16 97.5542 43.36C97.2342 43.44 96.8942 43.48 96.5342 43.48C96.1742 43.52 95.8342 43.54 95.5142 43.54ZM113.568 43.54C111.568 43.54 109.768 43.16 108.168 42.4C106.608 41.6 105.368 40.52 104.448 39.16C103.528 37.8 103.068 36.28 103.068 34.6C103.068 32.48 103.608 30.8 104.688 29.56C105.808 28.32 107.628 27.44 110.148 26.92C112.708 26.36 116.188 26.08 120.588 26.08H122.508V24.22C122.508 21.74 121.988 19.96 120.948 18.88C119.948 17.76 118.328 17.2 116.088 17.2C114.688 17.2 113.268 17.38 111.828 17.74C110.428 18.1 108.968 18.68 107.448 19.48C106.768 19.84 106.188 19.92 105.708 19.72C105.268 19.48 104.948 19.12 104.748 18.64C104.588 18.12 104.588 17.6 104.748 17.08C104.948 16.52 105.348 16.1 105.948 15.82C107.668 14.94 109.388 14.3 111.108 13.9C112.868 13.5 114.528 13.3 116.088 13.3C119.848 13.3 122.628 14.22 124.428 16.06C126.268 17.9 127.188 20.76 127.188 24.64V40.9C127.188 42.58 126.448 43.42 124.968 43.42C123.408 43.42 122.628 42.58 122.628 40.9V37.96C121.868 39.68 120.688 41.04 119.088 42.04C117.528 43.04 115.688 43.54 113.568 43.54ZM114.348 39.88C116.748 39.88 118.708 39.06 120.228 37.42C121.748 35.74 122.508 33.62 122.508 31.06V29.26H120.648C117.408 29.26 114.848 29.42 112.968 29.74C111.128 30.02 109.828 30.54 109.068 31.3C108.348 32.02 107.988 33.02 107.988 34.3C107.988 35.94 108.548 37.28 109.668 38.32C110.828 39.36 112.388 39.88 114.348 39.88Z" fill="black"/>
</svg>
