<svg width="62" height="101" viewBox="0 0 62 101" fill="none" xmlns="http://www.w3.org/2000/svg">
<path d="M6.96 61.42C5.36 61.42 4.56 60.58 4.56 58.9V33.88C4.56 32.24 5.34 31.42 6.9 31.42C8.5 31.42 9.3 32.24 9.3 33.88V36.82C10.26 34.98 11.62 33.6 13.38 32.68C15.14 31.76 17.12 31.3 19.32 31.3C26.24 31.3 29.7 35.14 29.7 42.82V58.9C29.7 60.58 28.9 61.42 27.3 61.42C25.66 61.42 24.84 60.58 24.84 58.9V43.12C24.84 40.4 24.3 38.42 23.22 37.18C22.18 35.9 20.5 35.26 18.18 35.26C15.5 35.26 13.36 36.1 11.76 37.78C10.2 39.42 9.42 41.62 9.42 44.38V58.9C9.42 60.58 8.6 61.42 6.96 61.42Z" fill="black"/>
<path d="M33.96 91.22C32.36 91.22 31.56 90.4 31.56 88.76V52.88C31.56 51.24 32.34 50.42 33.9 50.42C35.54 50.42 36.36 51.24 36.36 52.88V56C37.2 54.24 38.5 52.86 40.26 51.86C42.02 50.82 44.04 50.3 46.32 50.3C48.92 50.3 51.18 50.92 53.1 52.16C55.06 53.36 56.56 55.1 57.6 57.38C58.68 59.62 59.22 62.3 59.22 65.42C59.22 68.5 58.68 71.18 57.6 73.46C56.56 75.7 55.06 77.44 53.1 78.68C51.18 79.92 48.92 80.54 46.32 80.54C44.08 80.54 42.08 80.04 40.32 79.04C38.56 78.04 37.26 76.66 36.42 74.9V88.76C36.42 90.4 35.6 91.22 33.96 91.22ZM45.3 76.64C48.02 76.64 50.2 75.68 51.84 73.76C53.48 71.8 54.3 69.02 54.3 65.42C54.3 61.78 53.48 59 51.84 57.08C50.2 55.16 48.02 54.2 45.3 54.2C42.58 54.2 40.4 55.16 38.76 57.08C37.12 59 36.3 61.78 36.3 65.42C36.3 69.02 37.12 71.8 38.76 73.76C40.4 75.68 42.58 76.64 45.3 76.64Z" fill="black"/>
<path d="M14 67C9.032 67 5 71.032 5 76C5 80.968 9.032 85 14 85C18.968 85 23 80.968 23 76C23 71.032 18.968 67 14 67ZM14.9 69.97L16.115 69.115C17.753 69.619 19.148 70.699 20.057 72.121L19.706 73.327L18.491 73.741L14.9 71.23V69.97ZM11.885 69.115L13.1 69.97V71.23L9.509 73.741L8.294 73.327L7.943 72.121C8.852 70.708 10.247 69.628 11.885 69.115ZM9.572 80.599L8.546 80.689C7.457 79.429 6.8 77.791 6.8 76C6.8 75.892 6.809 75.793 6.818 75.685L7.718 75.028L8.96 75.46L10.274 79.366L9.572 80.599ZM16.25 82.831C15.539 83.065 14.783 83.2 14 83.2C13.217 83.2 12.461 83.065 11.75 82.831L11.129 81.49L11.705 80.5H16.304L16.88 81.499L16.25 82.831ZM16.043 78.7H11.957L10.742 75.082L14 72.796L17.267 75.082L16.043 78.7ZM19.454 80.689L18.428 80.599L17.717 79.366L19.031 75.46L20.282 75.037L21.182 75.694C21.191 75.793 21.2 75.892 21.2 76C21.2 77.791 20.543 79.429 19.454 80.689Z" fill="black"/>
<path d="M53 31C48.032 31 44 35.032 44 40C44 44.968 48.032 49 53 49C57.968 49 62 44.968 62 40C62 35.032 57.968 31 53 31ZM53.9 33.97L55.115 33.115C56.753 33.619 58.148 34.699 59.057 36.121L58.706 37.327L57.491 37.741L53.9 35.23V33.97ZM50.885 33.115L52.1 33.97V35.23L48.509 37.741L47.294 37.327L46.943 36.121C47.852 34.708 49.247 33.628 50.885 33.115ZM48.572 44.599L47.546 44.689C46.457 43.429 45.8 41.791 45.8 40C45.8 39.892 45.809 39.793 45.818 39.685L46.718 39.028L47.96 39.46L49.274 43.366L48.572 44.599ZM55.25 46.831C54.539 47.065 53.783 47.2 53 47.2C52.217 47.2 51.461 47.065 50.75 46.831L50.129 45.49L50.705 44.5H55.304L55.88 45.499L55.25 46.831ZM55.043 42.7H50.957L49.742 39.082L53 36.796L56.267 39.082L55.043 42.7ZM58.454 44.689L57.428 44.599L56.717 43.366L58.031 39.46L59.282 39.037L60.182 39.694C60.191 39.793 60.2 39.892 60.2 40C60.2 41.791 59.543 43.429 58.454 44.689Z" fill="black"/>
</svg>
