<?xml version="1.0" encoding="UTF-8" standalone="no"?>
<!DOCTYPE svg PUBLIC "-//W3C//DTD SVG 1.1//EN" "http://www.w3.org/Graphics/SVG/1.1/DTD/svg11.dtd">
<svg width="100%" height="100%" viewBox="0 0 214 143" version="1.1" xmlns="http://www.w3.org/2000/svg" xmlns:xlink="http://www.w3.org/1999/xlink" xml:space="preserve" xmlns:serif="http://www.serif.com/" style="fill-rule:evenodd;clip-rule:evenodd;stroke-linejoin:round;stroke-miterlimit:2;">
    <g transform="matrix(1,0,0,1,0,-10)">
        <path d="M17.96,61.42C16.36,61.42 15.56,60.58 15.56,58.9L15.56,33.88C15.56,32.24 16.34,31.42 17.9,31.42C19.5,31.42 20.3,32.24 20.3,33.88L20.3,36.82C21.26,34.98 22.62,33.6 24.38,32.68C26.14,31.76 28.12,31.3 30.32,31.3C37.24,31.3 40.7,35.14 40.7,42.82L40.7,58.9C40.7,60.58 39.9,61.42 38.3,61.42C36.66,61.42 35.84,60.58 35.84,58.9L35.84,43.12C35.84,40.4 35.3,38.42 34.22,37.18C33.18,35.9 31.5,35.26 29.18,35.26C26.5,35.26 24.36,36.1 22.76,37.78C21.2,39.42 20.42,41.62 20.42,44.38L20.42,58.9C20.42,60.58 19.6,61.42 17.96,61.42ZM59.982,61.54C52.982,61.54 49.482,57.68 49.482,49.96L49.482,33.88C49.482,32.24 50.282,31.42 51.882,31.42C53.522,31.42 54.342,32.24 54.342,33.88L54.342,49.9C54.342,52.5 54.862,54.42 55.902,55.66C56.982,56.9 58.662,57.52 60.942,57.52C63.422,57.52 65.442,56.7 67.002,55.06C68.562,53.38 69.342,51.16 69.342,48.4L69.342,33.88C69.342,32.24 70.162,31.42 71.802,31.42C73.402,31.42 74.202,32.24 74.202,33.88L74.202,58.9C74.202,60.58 73.422,61.42 71.862,61.42C70.262,61.42 69.462,60.58 69.462,58.9L69.462,56.08C68.542,57.84 67.242,59.2 65.562,60.16C63.922,61.08 62.062,61.54 59.982,61.54ZM96.434,61.54C91.834,61.54 88.194,60.2 85.514,57.52C82.834,54.8 81.494,51.12 81.494,46.48C81.494,43.48 82.094,40.84 83.294,38.56C84.494,36.24 86.134,34.46 88.214,33.22C90.334,31.94 92.774,31.3 95.534,31.3C99.494,31.3 102.594,32.58 104.834,35.14C107.074,37.66 108.194,41.14 108.194,45.58C108.194,46.82 107.494,47.44 106.094,47.44L86.234,47.44C86.394,50.76 87.354,53.3 89.114,55.06C90.874,56.78 93.314,57.64 96.434,57.64C97.754,57.64 99.094,57.48 100.454,57.16C101.814,56.8 103.134,56.18 104.414,55.3C105.334,54.7 106.094,54.58 106.694,54.94C107.334,55.3 107.654,55.86 107.654,56.62C107.694,57.34 107.294,57.98 106.454,58.54C105.134,59.5 103.554,60.24 101.714,60.76C99.914,61.28 98.154,61.54 96.434,61.54ZM95.654,34.9C92.894,34.9 90.714,35.76 89.114,37.48C87.514,39.2 86.574,41.46 86.294,44.26L103.994,44.26C103.874,41.3 103.094,39 101.654,37.36C100.254,35.72 98.254,34.9 95.654,34.9ZM125.068,61.54C123.268,61.54 121.448,61.32 119.608,60.88C117.808,60.4 116.128,59.64 114.568,58.6C113.848,58.16 113.488,57.6 113.488,56.92C113.528,56.2 113.808,55.64 114.328,55.24C114.848,54.84 115.508,54.84 116.308,55.24C117.868,56.2 119.368,56.88 120.808,57.28C122.288,57.64 123.748,57.82 125.188,57.82C127.468,57.82 129.188,57.4 130.348,56.56C131.508,55.72 132.088,54.58 132.088,53.14C132.088,52.02 131.708,51.14 130.948,50.5C130.188,49.82 128.988,49.3 127.348,48.94L121.888,47.74C116.928,46.66 114.448,44.1 114.448,40.06C114.448,37.42 115.488,35.3 117.568,33.7C119.688,32.1 122.448,31.3 125.848,31.3C127.568,31.3 129.228,31.54 130.828,32.02C132.428,32.46 133.868,33.18 135.148,34.18C135.828,34.66 136.128,35.24 136.048,35.92C135.968,36.6 135.648,37.14 135.088,37.54C134.568,37.9 133.928,37.84 133.168,37.36C131.968,36.56 130.748,35.98 129.508,35.62C128.268,35.22 127.048,35.02 125.848,35.02C123.608,35.02 121.908,35.46 120.748,36.34C119.588,37.22 119.008,38.38 119.008,39.82C119.008,42.06 120.488,43.5 123.448,44.14L128.908,45.28C131.468,45.84 133.408,46.74 134.728,47.98C136.048,49.18 136.708,50.82 136.708,52.9C136.708,55.58 135.648,57.7 133.528,59.26C131.408,60.78 128.588,61.54 125.068,61.54ZM155.522,61.54C152.082,61.54 149.502,60.64 147.782,58.84C146.062,57 145.202,54.36 145.202,50.92L145.202,35.62L141.182,35.62C139.782,35.62 139.082,34.98 139.082,33.7C139.082,32.46 139.782,31.84 141.182,31.84L145.202,31.84L145.202,24.94C145.202,23.3 146.022,22.48 147.662,22.48C149.262,22.48 150.062,23.3 150.062,24.94L150.062,31.84L157.622,31.84C159.022,31.84 159.722,32.46 159.722,33.7C159.722,34.98 159.022,35.62 157.622,35.62L150.062,35.62L150.062,50.44C150.062,52.72 150.542,54.46 151.502,55.66C152.462,56.82 154.022,57.4 156.182,57.4C156.942,57.4 157.582,57.32 158.102,57.16C158.622,57 159.082,56.92 159.482,56.92C159.842,56.88 160.142,57 160.382,57.28C160.622,57.56 160.742,58.04 160.742,58.72C160.742,59.2 160.642,59.64 160.442,60.04C160.282,60.44 159.982,60.72 159.542,60.88C159.062,61.04 158.422,61.18 157.622,61.3C156.862,61.46 156.162,61.54 155.522,61.54ZM167.258,61.42C165.618,61.42 164.798,60.58 164.798,58.9L164.798,33.88C164.798,32.24 165.578,31.42 167.138,31.42C168.738,31.42 169.538,32.24 169.538,33.88L169.538,37.06C170.338,35.22 171.578,33.82 173.258,32.86C174.938,31.86 176.938,31.32 179.258,31.24C180.538,31.12 181.218,31.76 181.298,33.16C181.418,34.56 180.698,35.34 179.138,35.5L178.178,35.62C175.418,35.86 173.318,36.74 171.878,38.26C170.438,39.74 169.718,41.78 169.718,44.38L169.718,58.9C169.718,60.58 168.898,61.42 167.258,61.42ZM195.189,61.54C193.189,61.54 191.389,61.16 189.789,60.4C188.229,59.6 186.989,58.52 186.069,57.16C185.149,55.8 184.689,54.28 184.689,52.6C184.689,50.48 185.229,48.8 186.309,47.56C187.429,46.32 189.249,45.44 191.769,44.92C194.329,44.36 197.809,44.08 202.209,44.08L204.129,44.08L204.129,42.22C204.129,39.74 203.609,37.96 202.569,36.88C201.569,35.76 199.949,35.2 197.709,35.2C196.309,35.2 194.889,35.38 193.449,35.74C192.049,36.1 190.589,36.68 189.069,37.48C188.389,37.84 187.809,37.92 187.329,37.72C186.889,37.48 186.569,37.12 186.369,36.64C186.209,36.12 186.209,35.6 186.369,35.08C186.569,34.52 186.969,34.1 187.569,33.82C189.289,32.94 191.009,32.3 192.729,31.9C194.489,31.5 196.149,31.3 197.709,31.3C201.469,31.3 204.249,32.22 206.049,34.06C207.889,35.9 208.809,38.76 208.809,42.64L208.809,58.9C208.809,60.58 208.069,61.42 206.589,61.42C205.029,61.42 204.249,60.58 204.249,58.9L204.249,55.96C203.489,57.68 202.309,59.04 200.709,60.04C199.149,61.04 197.309,61.54 195.189,61.54ZM195.969,57.88C198.369,57.88 200.329,57.06 201.849,55.42C203.369,53.74 204.129,51.62 204.129,49.06L204.129,47.26L202.269,47.26C199.029,47.26 196.469,47.42 194.589,47.74C192.749,48.02 191.449,48.54 190.689,49.3C189.969,50.02 189.609,51.02 189.609,52.3C189.609,53.94 190.169,55.28 191.289,56.32C192.449,57.36 194.009,57.88 195.969,57.88Z" style="fill:white;fill-rule:nonzero;"/>
    </g>
    <g transform="matrix(1.52612,0,0,1.52612,-110.436,-60.8092)">
        <path d="M84.96,133.22C83.36,133.22 82.56,132.4 82.56,130.76L82.56,94.88C82.56,93.24 83.34,92.42 84.9,92.42C86.54,92.42 87.36,93.24 87.36,94.88L87.36,98C88.2,96.24 89.5,94.86 91.26,93.86C93.02,92.82 95.04,92.3 97.32,92.3C99.92,92.3 102.18,92.92 104.1,94.16C106.06,95.36 107.56,97.1 108.6,99.38C109.68,101.62 110.22,104.3 110.22,107.42C110.22,110.5 109.68,113.18 108.6,115.46C107.56,117.7 106.06,119.44 104.1,120.68C102.18,121.92 99.92,122.54 97.32,122.54C95.08,122.54 93.08,122.04 91.32,121.04C89.56,120.04 88.26,118.66 87.42,116.9L87.42,130.76C87.42,132.4 86.6,133.22 84.96,133.22ZM96.3,118.64C99.02,118.64 101.2,117.68 102.84,115.76C104.48,113.8 105.3,111.02 105.3,107.42C105.3,103.78 104.48,101 102.84,99.08C101.2,97.16 99.02,96.2 96.3,96.2C93.58,96.2 91.4,97.16 89.76,99.08C88.12,101 87.3,103.78 87.3,107.42C87.3,111.02 88.12,113.8 89.76,115.76C91.4,117.68 93.58,118.64 96.3,118.64ZM159.76,122.54C156.88,122.54 154.68,121.68 153.16,119.96C151.64,118.2 150.88,115.66 150.88,112.34L150.88,81.74C150.88,80.1 151.68,79.28 153.28,79.28C154.92,79.28 155.74,80.1 155.74,81.74L155.74,111.98C155.74,116.26 157.44,118.4 160.84,118.4C161.2,118.4 161.52,118.38 161.8,118.34C162.08,118.3 162.36,118.28 162.64,118.28C163.08,118.24 163.38,118.34 163.54,118.58C163.74,118.82 163.84,119.3 163.84,120.02C163.84,121.38 163.16,122.16 161.8,122.36C161.48,122.44 161.14,122.48 160.78,122.48C160.42,122.52 160.08,122.54 159.76,122.54ZM177.514,122.54C174.634,122.54 172.434,121.68 170.914,119.96C169.394,118.2 168.634,115.66 168.634,112.34L168.634,81.74C168.634,80.1 169.434,79.28 171.034,79.28C172.674,79.28 173.494,80.1 173.494,81.74L173.494,111.98C173.494,116.26 175.194,118.4 178.594,118.4C178.954,118.4 179.274,118.38 179.554,118.34C179.834,118.3 180.114,118.28 180.394,118.28C180.834,118.24 181.134,118.34 181.294,118.58C181.494,118.82 181.594,119.3 181.594,120.02C181.594,121.38 180.914,122.16 179.554,122.36C179.234,122.44 178.894,122.48 178.534,122.48C178.174,122.52 177.834,122.54 177.514,122.54ZM195.568,122.54C193.568,122.54 191.768,122.16 190.168,121.4C188.608,120.6 187.368,119.52 186.448,118.16C185.528,116.8 185.068,115.28 185.068,113.6C185.068,111.48 185.608,109.8 186.688,108.56C187.808,107.32 189.628,106.44 192.148,105.92C194.708,105.36 198.188,105.08 202.588,105.08L204.508,105.08L204.508,103.22C204.508,100.74 203.988,98.96 202.948,97.88C201.948,96.76 200.328,96.2 198.088,96.2C196.688,96.2 195.268,96.38 193.828,96.74C192.428,97.1 190.968,97.68 189.448,98.48C188.768,98.84 188.188,98.92 187.708,98.72C187.268,98.48 186.948,98.12 186.748,97.64C186.588,97.12 186.588,96.6 186.748,96.08C186.948,95.52 187.348,95.1 187.948,94.82C189.668,93.94 191.388,93.3 193.108,92.9C194.868,92.5 196.528,92.3 198.088,92.3C201.848,92.3 204.628,93.22 206.428,95.06C208.268,96.9 209.188,99.76 209.188,103.64L209.188,119.9C209.188,121.58 208.448,122.42 206.968,122.42C205.408,122.42 204.628,121.58 204.628,119.9L204.628,116.96C203.868,118.68 202.688,120.04 201.088,121.04C199.528,122.04 197.688,122.54 195.568,122.54ZM196.348,118.88C198.748,118.88 200.708,118.06 202.228,116.42C203.748,114.74 204.508,112.62 204.508,110.06L204.508,108.26L202.648,108.26C199.408,108.26 196.848,108.42 194.968,108.74C193.128,109.02 191.828,109.54 191.068,110.3C190.348,111.02 189.988,112.02 189.988,113.3C189.988,114.94 190.548,116.28 191.668,117.32C192.828,118.36 194.388,118.88 196.348,118.88Z" style="fill:white;fill-rule:nonzero;"/>
    </g>
    <g transform="matrix(0.621244,0,0,0.621244,64.4362,37.3526)">
        <path d="M40,63C17.92,63 0,80.92 0,103C0,125.08 17.92,143 40,143C62.08,143 80,125.08 80,103C80,80.92 62.08,63 40,63ZM44,76.2L49.4,72.4C56.68,74.64 62.88,79.44 66.92,85.76L65.36,91.12L59.96,92.96L44,81.8L44,76.2ZM30.6,72.4L36,76.2L36,81.8L20.04,92.96L14.64,91.12L13.08,85.76C17.12,79.48 23.32,74.68 30.6,72.4ZM20.32,123.44L15.76,123.84C10.92,118.24 8,110.96 8,103C8,102.52 8.04,102.08 8.08,101.6L12.08,98.68L17.6,100.6L23.44,117.96L20.32,123.44ZM50,133.36C46.84,134.4 43.48,135 40,135C36.52,135 33.16,134.4 30,133.36L27.24,127.4L29.8,123L50.24,123L52.8,127.44L50,133.36ZM49.08,115L30.92,115L25.52,98.92L40,88.76L54.52,98.92L49.08,115ZM64.24,123.84L59.68,123.44L56.52,117.96L62.36,100.6L67.92,98.72L71.92,101.64C71.96,102.08 72,102.52 72,103C72,110.96 69.08,118.24 64.24,123.84Z" style="fill:rgb(129,190,228);fill-rule:nonzero;"/>
    </g>
</svg>
